<svg width="60" height="62" viewBox="0 0 60 62" fill="none" xmlns="http://www.w3.org/2000/svg">
<circle opacity="0.2" cx="24.0161" cy="24.0161" r="24.0161" fill="#908F9D"/>
<path d="M49.4273 42.9736C48.4125 41.917 47.1885 41.352 45.8912 41.352C44.6043 41.352 43.3698 41.9065 42.3131 42.9632L39.0071 46.2587C38.7351 46.1123 38.4631 45.9762 38.2016 45.8402C37.8249 45.6519 37.4692 45.4741 37.1658 45.2858C34.0691 43.3189 31.2548 40.7557 28.5555 37.4392C27.2478 35.7862 26.369 34.3948 25.7308 32.9824C26.5887 32.1977 27.3838 31.3817 28.158 30.597C28.4509 30.3041 28.7439 30.0007 29.0368 29.7078C31.2338 27.5107 31.2338 24.665 29.0368 22.468L26.1807 19.6119C25.8563 19.2875 25.5216 18.9528 25.2077 18.618C24.58 17.9693 23.9209 17.2998 23.2408 16.672C22.226 15.6677 21.0124 15.1341 19.736 15.1341C18.4597 15.1341 17.2251 15.6677 16.1789 16.672C16.1685 16.6825 16.1685 16.6825 16.158 16.693L12.6009 20.2814C11.2618 21.6206 10.498 23.2527 10.3306 25.1463C10.0796 28.2012 10.9793 31.0469 11.6698 32.9091C13.3646 37.4811 15.8965 41.7182 19.6733 46.2587C24.2556 51.7304 29.7691 56.0512 36.0673 59.0957C38.4736 60.236 41.6854 61.5856 45.2739 61.8158C45.4936 61.8263 45.7238 61.8367 45.933 61.8367C48.3498 61.8367 50.3794 60.9684 51.9696 59.2421C51.9801 59.2212 52.001 59.2108 52.0115 59.1898C52.5555 58.5307 53.1832 57.9344 53.8423 57.2962C54.2922 56.8672 54.7525 56.4174 55.2024 55.9466C56.2381 54.869 56.7822 53.6135 56.7822 52.3267C56.7822 51.0294 56.2277 49.7844 55.171 48.7382L49.4273 42.9736ZM53.1728 53.9902C53.1623 54.0006 53.1623 53.9902 53.1728 53.9902C52.7647 54.4296 52.3463 54.8271 51.8964 55.2666C51.2164 55.9152 50.5259 56.5952 49.8772 57.359C48.8205 58.4889 47.5756 59.0224 45.9435 59.0224C45.7866 59.0224 45.6192 59.0224 45.4622 59.012C42.355 58.8132 39.4675 57.5996 37.3018 56.5639C31.3803 53.6972 26.1807 49.6275 21.8598 44.4697C18.2923 40.1698 15.9069 36.1942 14.3272 31.9257C13.3542 29.3207 12.9985 27.291 13.1554 25.3765C13.26 24.1524 13.7308 23.1376 14.5992 22.2692L18.1667 18.7017C18.6794 18.2204 19.2234 17.9589 19.757 17.9589C20.4161 17.9589 20.9496 18.3564 21.2844 18.6912C21.2949 18.7017 21.3053 18.7121 21.3158 18.7226C21.954 19.3189 22.5608 19.9362 23.199 20.5953C23.5233 20.9301 23.8581 21.2649 24.1929 21.6101L27.049 24.4663C28.158 25.5752 28.158 26.6005 27.049 27.7095C26.7456 28.0129 26.4527 28.3163 26.1493 28.6092C25.2705 29.509 24.4335 30.3459 23.5233 31.162C23.5024 31.1829 23.4815 31.1934 23.471 31.2143C22.5713 32.114 22.7386 32.9928 22.927 33.5892C22.9374 33.6206 22.9479 33.6519 22.9583 33.6833C23.7012 35.4828 24.7474 37.1777 26.3376 39.1968L26.3481 39.2073C29.2356 42.7644 32.28 45.5368 35.6384 47.6606C36.0673 47.9327 36.5067 48.1524 36.9252 48.3616C37.3018 48.5499 37.6575 48.7278 37.9609 48.9161C38.0028 48.937 38.0446 48.9684 38.0865 48.9893C38.4422 49.1672 38.777 49.2509 39.1222 49.2509C39.9906 49.2509 40.5346 48.7068 40.7125 48.529L44.2905 44.951C44.6462 44.5953 45.2111 44.1663 45.8703 44.1663C46.5189 44.1663 47.0525 44.5743 47.3768 44.93C47.3872 44.9405 47.3872 44.9405 47.3977 44.951L53.1623 50.7156C54.2399 51.7827 54.2399 52.8812 53.1728 53.9902Z" fill="#2ED158"/>
<path d="M37.0403 24.0583C39.7813 24.5186 42.2713 25.8159 44.2591 27.8037C46.2469 29.7915 47.5337 32.2814 48.0045 35.0225C48.1196 35.713 48.7159 36.1942 49.3959 36.1942C49.4796 36.1942 49.5529 36.1838 49.6366 36.1733C50.4108 36.0478 50.9234 35.3154 50.7979 34.5412C50.2329 31.2248 48.6636 28.2012 46.2678 25.8054C43.872 23.4096 40.8484 21.8403 37.532 21.2753C36.7578 21.1498 36.0359 21.6624 35.8999 22.4262C35.7639 23.1899 36.2661 23.9327 37.0403 24.0583Z" fill="#2ED158"/>
<path d="M59.7636 34.1332C58.8325 28.672 56.2588 23.7026 52.3042 19.7479C48.3495 15.7932 43.38 13.2196 37.9188 12.2885C37.1551 12.1524 36.4332 12.6756 36.2972 13.4393C36.1717 14.2135 36.6843 14.9354 37.4585 15.0714C42.3338 15.8979 46.7802 18.21 50.3164 21.7357C53.8525 25.2719 56.1542 29.7182 56.9807 34.5936C57.0958 35.2841 57.6921 35.7653 58.3722 35.7653C58.4559 35.7653 58.5291 35.7548 58.6128 35.7444C59.3765 35.6293 59.8996 34.897 59.7636 34.1332Z" fill="#2ED158"/>
</svg>
