<svg width="35" height="35" viewBox="0 0 35 35" fill="none" xmlns="http://www.w3.org/2000/svg">
<circle cx="17.0732" cy="17.0732" r="16.5732" stroke="#2ED158"/>
<path d="M20.6302 9.95947H13.5164C11.552 9.95947 9.95947 11.552 9.95947 13.5164V20.6302C9.95947 22.5946 11.552 24.1871 13.5164 24.1871H20.6302C22.5946 24.1871 24.1871 22.5946 24.1871 20.6302V13.5164C24.1871 11.552 22.5946 9.95947 20.6302 9.95947Z" stroke="#2ED158" stroke-linecap="round" stroke-linejoin="round"/>
<path d="M19.9186 16.6248C20.0064 17.2168 19.9052 17.8215 19.6296 18.3528C19.3539 18.884 18.9178 19.3148 18.3832 19.5839C17.8485 19.853 17.2427 19.9467 16.6518 19.8516C16.0608 19.7565 15.515 19.4775 15.0917 19.0543C14.6685 18.6311 14.3895 18.0852 14.2944 17.4943C14.1994 16.9033 14.293 16.2975 14.5621 15.7629C14.8312 15.2282 15.262 14.7921 15.7933 14.5164C16.3245 14.2408 16.9292 14.1396 17.5212 14.2274C18.1251 14.317 18.6842 14.5984 19.1159 15.0301C19.5476 15.4618 19.829 16.0209 19.9186 16.6248Z" stroke="#2ED158" stroke-linecap="round" stroke-linejoin="round"/>
<path d="M20.9858 13.1606H20.993" stroke="#2ED158" stroke-linecap="round" stroke-linejoin="round"/>
</svg>
