<svg width="49" height="62" viewBox="0 0 49 62" fill="none" xmlns="http://www.w3.org/2000/svg">
<circle opacity="0.2" cx="24.0161" cy="24.0161" r="24.0161" fill="#908F9D"/>
<path d="M44.4999 44.7659C43.5571 44.7659 42.7928 45.5302 42.7928 46.473V56.7157C42.7928 57.6585 42.0285 58.4228 41.0856 58.4228H6.94368C6.00084 58.4228 5.23654 57.6585 5.23654 56.7157V46.473C5.23654 45.5302 4.47224 44.7659 3.5294 44.7659C2.58656 44.7659 1.82227 45.5302 1.82227 46.473V56.7157C1.82227 59.5441 4.11515 61.837 6.94358 61.837H41.0857C43.9141 61.837 46.207 59.5441 46.207 56.7157V46.473C46.207 45.5302 45.4427 44.7659 44.4999 44.7659Z" fill="#2ED158"/>
<path d="M33.7183 43.5589C33.0568 42.92 32.008 42.92 31.3465 43.5589L25.7216 49.1803V15.7451C25.7216 14.8022 24.9573 14.0379 24.0144 14.0379C23.0716 14.0379 22.3073 14.8022 22.3073 15.7451V49.1804L16.6858 43.5589C16.0076 42.9039 14.9269 42.9227 14.2719 43.6008C13.633 44.2624 13.633 45.3111 14.2719 45.9727L22.8074 54.5082C23.4733 55.1757 24.5542 55.1771 25.2217 54.5113C25.2227 54.5103 25.2237 54.5093 25.2248 54.5082L33.7602 45.9727C34.4153 45.2945 34.3965 44.2139 33.7183 43.5589Z" fill="#2ED158"/>
</svg>
