<svg width="35" height="35" viewBox="0 0 35 35" fill="none" xmlns="http://www.w3.org/2000/svg">
<circle cx="17.3657" cy="17.0732" r="16.5732" stroke="#2ED158"/>
<path d="M27.1525 11.13C26.3939 11.6651 25.554 12.0744 24.6652 12.342C24.1881 11.7935 23.554 11.4047 22.8488 11.2282C22.1435 11.0517 21.4011 11.0961 20.7219 11.3554C20.0427 11.6146 19.4595 12.0762 19.0511 12.6777C18.6428 13.2792 18.4291 13.9916 18.4388 14.7185V15.5107C17.0467 15.5468 15.6673 15.238 14.4234 14.6119C13.1795 13.9858 12.1097 13.0618 11.3094 11.9222C11.3094 11.9222 8.14079 19.0516 15.2702 22.2202C13.6388 23.3276 11.6953 23.8829 9.7251 23.8045C16.8545 27.7653 25.5682 23.8045 25.5682 14.6947C25.5675 14.4741 25.5463 14.254 25.5048 14.0372C26.3133 13.2399 26.8838 12.2333 27.1525 11.13Z" stroke="#2ED158" stroke-linecap="round" stroke-linejoin="round"/>
</svg>
